<?xml version="1.0" encoding="UTF-8" standalone="no"?>
<svg
   width="535.5188"
   height="427.00836"
   viewBox="0 0 48.196692 38.430752"
   id="emoji"
   version="1.1"
   xmlns:xlink="http://www.w3.org/1999/xlink"
   xmlns="http://www.w3.org/2000/svg"
   xmlns:svg="http://www.w3.org/2000/svg"
   xmlns:rdf="http://www.w3.org/1999/02/22-rdf-syntax-ns#"
   xmlns:cc="http://creativecommons.org/ns#">
  <defs
     id="defs3">
    <linearGradient
       id="linearGradient1">
      <stop
         style="stop-color:#6a81ce;stop-opacity:1;"
         offset="0"
         id="stop1" />
      <stop
         style="stop-color:#354d98;stop-opacity:0.95098037;"
         offset="1"
         id="stop2" />
    </linearGradient>
    <radialGradient
       xlink:href="#linearGradient1"
       id="radialGradient2"
       cx="31.848103"
       cy="20.934372"
       fx="31.848103"
       fy="20.934372"
       r="22.118774"
       gradientTransform="matrix(1,0,0,0.85969361,0,2.9372261)"
       gradientUnits="userSpaceOnUse" />
    <radialGradient
       xlink:href="#linearGradient1"
       id="radialGradient3"
       gradientUnits="userSpaceOnUse"
       gradientTransform="matrix(1,0,0,0.85969361,0,2.9372261)"
       cx="31.848103"
       cy="20.934372"
       fx="31.848103"
       fy="20.934372"
       r="22.118774" />
  </defs>
  <g
     id="line"
     transform="matrix(0.72573755,6.1602341e-4,-5.6328563e-4,0.79368495,-2.8854882,-9.2693008)">
    <path
       id="polyline1"
       style="fill:none;stroke:#000000;stroke-width:2;stroke-linecap:round;stroke-linejoin:round;stroke-miterlimit:10"
       d="m 8,22 v -6 h 55 v 8 l 4,4.0005 V 46.9042 L 63,51 v 5 H 8 V 31" />
    <path
       id="rect1"
       style="fill:none;stroke:#000000;stroke-width:2;stroke-linecap:round;stroke-linejoin:round;stroke-miterlimit:10"
       d="m 29,46 h 28 v 4 H 29 Z" />
    <path
       id="rect2"
       style="fill:none;stroke:#000000;stroke-width:2;stroke-linecap:round;stroke-linejoin:round;stroke-miterlimit:10"
       d="m 24,22 h 33 v 4 H 24 Z" />
    <path
       id="polyline2"
       style="fill:none;stroke:#000000;stroke-width:2;stroke-linecap:round;stroke-linejoin:round;stroke-miterlimit:10"
       d="M 18,30 V 22 H 5 v 9 h 6.1252" />
    <path
       id="polyline3"
       style="fill:none;stroke:#000000;stroke-width:2;stroke-linecap:round;stroke-linejoin:round;stroke-miterlimit:10"
       d="m 14,50 h 4 v -4 h -4" />
    <path
       fill="none"
       stroke="#000000"
       stroke-linecap="round"
       stroke-linejoin="round"
       stroke-miterlimit="10"
       stroke-width="2"
       d="M 8,22"
       id="path3" />
  </g>
  <g
     id="g10"
     style="stroke:url(#radialGradient2);stroke-width:0.224528;stroke-dasharray:none;filter:url(#filter22)"
     transform="matrix(1.0653944,0,0,0.95695499,-9.6198277,-1.3087308)">
    <path
       d="m 3.4468175,33.167907 v 5.280626 H 1.7306138 v 4.767233 H -4.2247598 V 30.483588 q 0,-3.696439 2.0095719,-5.735348 2.02424024,-2.053577 5.6766738,-2.053577 3.5204179,0 5.2072848,1.862888 1.6868673,1.84822 1.6868673,5.720679 V 43.215766 H 4.400264 V 30.674277 q 0,-1.173472 -0.2786997,-1.628193 -0.2786998,-0.454721 -0.9974518,-0.454721 -1.3934987,0 -1.3934987,2.082914 v 2.49363 z M 28.031069,23.193389 V 36.17493 q 0,3.432408 -2.053577,5.485985 -2.038909,2.053577 -5.441979,2.053577 -3.388402,0 -5.192617,-1.994904 -1.789545,-1.994903 -1.789545,-5.735347 V 23.193389 h 5.955373 v 12.776183 q 0,1.833551 1.305489,1.833551 1.261483,0 1.261483,-1.833551 V 23.193389 Z m 9.578469,0 V 43.215766 H 31.654164 V 23.193389 Z"
       id="text3"
       style="font-size:30.0409px;font-family:'Bauhaus 93';-inkscape-font-specification:'Bauhaus 93, Normal ';dominant-baseline:middle;text-anchor:middle;fill:#1b5870;fill-opacity:0.847866;stroke:url(#radialGradient3);stroke-width:0.224528;stroke-linejoin:round;stroke-miterlimit:1;stroke-dasharray:none"
       transform="rotate(-29.026826)"
       aria-label="AUI" />
  </g>
  <!-- AUI text -->
  <metadata
     id="metadata3">
    <rdf:RDF>
      <cc:Work
         rdf:about="" />
    </rdf:RDF>
  </metadata>
</svg>
